<svg xmlns="http://www.w3.org/2000/svg" viewBox="0 0 1024 1024"><defs><style>.cls-1{fill:#74a12e;}.cls-2{fill:#fff;}</style></defs><g id="Layer_2" data-name="Layer 2"><g id="Layer_1-2" data-name="Layer 1"><rect class="cls-1" width="1024" height="1024"/><path class="cls-2" d="M345.68,639.89c0,8.18-.22,15.53.19,22.84.08,1.37,2.51,3.54,4.08,3.77,34,5,68.21,7.34,102.6,4.56,7.57-.61,15.13-1.44,22.71-1.85,6.31-.35,10.14,2.68,10.76,7.89.66,5.54-2.5,10.06-9,10.4-25.56,1.34-51.16,3.16-76.71,2.82-18.58-.24-37.15-3.28-55.65-5.7-12.48-1.63-17.35-7.7-17.57-20.11-.14-7.82-.3-15.65.05-23.46.21-4.64-1.52-6.84-5.75-8.72-39.34-17.54-72.11-43.26-96.5-79.05-19.53-28.66-29.88-60.39-31.77-95.09-.8-14.59,4.73-25.25,16.49-33.12a118.74,118.74,0,0,1,12.33-7.24c6.09-3.06,11.27-1.53,13.87,3.71,2.47,5,.57,9.52-5.08,13-5,3-10.16,5.92-14.57,9.68-5.44,4.63-5.72,8.8.11,12.9a175.72,175.72,0,0,0,25.36,14.21c6,2.85,12.6,4.38,20.09,6.89,0-3.07.08-5.09,0-7.11q-1.44-31.9-2.93-63.8c-.25-5.35,1.78-9.16,6.79-11.44q36.42-16.5,72.78-33.15c6.22-2.85,10.58-.59,14.81,4.16q54.19,60.86,108.52,121.58c3.58,4,6.85,6.44,12.71,5.43,6.54-1.13,11.2,2.79,11.65,8.38.49,6-3.46,10.15-10.64,10.27-32.12.5-64.29,2.18-96.34.88-47.74-1.94-95.18-7.35-140.76-23.07-7.73-2.66-15.14-6.24-24.3-10.07,2.92,9.73,5,18.56,8.19,26.92,18.42,47.54,52.78,80.06,97.1,103.58,18.46,9.8,38.37,11.9,58.38,14,14.44,1.56,29,2,43.53,2.77,6.81.38,10.91,3.87,10.84,9.54s-4.42,9.71-11.1,9.3c-19.06-1.18-38.1-2.73-57.13-4.28C358,641.66,352.3,640.72,345.68,639.89Zm95-144.07.72-1.87L366,409.69c.52,2.64.48,3.32.77,3.78q25.91,39.75,51.94,79.42a6.93,6.93,0,0,0,4.63,2.8C429.1,496,434.89,495.82,440.67,495.82ZM310.15,397.29l-1.62.87c.54,1.8,1,3.63,1.63,5.38q15.19,39.76,30.45,79.52c3.71,9.65,7.65,11.59,19.14,9.13Q334.87,444.6,310.15,397.29Zm22.19-1.78-1.15,1c1.35,2.68,2.67,5.37,4.06,8q21.24,40.69,42.51,81.37c5.23,10,6.3,10.54,19.07,8.28Zm-9.81,93.17c-10.27-26.83-20.46-53.45-30.66-80.08C296.31,432.51,302,456,307.7,479.51,309.93,488.67,311.47,489.66,322.53,488.68Zm-33.23-5.06c-2.75-11.25-5.39-22-8-32.81-.59,8.81-.45,17.39-.64,26C280.52,482.12,283,484.2,289.3,483.62Z"/><path class="cls-2" d="M525.53,371.06c0,.81-.23,2.7-.24,4.6,0,25,.21,50-.18,75-.1,6.3,2.07,10.23,7.69,11.8,15.83,4.42,31.53,10.28,47.69,12.25,29,3.54,58.36,4.72,87.57,6.74,7.88.54,12.6,5.42,10.65,11.87-1.67,5.5-6.06,7-11.26,6.84-10-.21-20-.2-30-.7-31.9-1.59-63.7-4.31-94.55-13.22A134.71,134.71,0,0,1,519,476.25c-8.6-4.41-12.54-11.89-12.52-21.86.09-35.42-.26-70.84-.24-106.25,0-9.48,5.49-16.51,13.58-19.91,12.7-5.36,25.77-10.44,39.19-13.38,42-9.22,84.75-10.78,127.61-9.82,33.7.76,67.27,3.05,100.11,11.13a183.35,183.35,0,0,1,31.72,11.35c10,4.56,14.78,12.69,14.59,24.53-.56,34.33-.33,68.67-.11,103,.06,8.7-3,15.87-10.37,19.62a254.22,254.22,0,0,1-31.71,12.94c-5,1.74-9.49-.75-11.07-6.33-1.51-5.33,1-9.49,6.7-11.61,7.5-2.8,15.18-5.23,22.39-8.64,2.3-1.09,4.75-4.79,4.78-7.32.34-27.16.2-54.33.17-81.49a2.58,2.58,0,0,0-.2-1.09C717.55,395.63,621.75,395.51,525.53,371.06ZM813,348.72l-.33-2.54c-9.45-6.93-20.66-9.6-31.79-12.17-27.81-6.43-56.14-8.89-84.59-9.89-47.88-1.68-95.53,0-142.41,11.1-9.6,2.26-19.2,4.89-28.11,11.74,2.89,1.78,4.86,3.64,7.18,4.31,13.91,4.05,27.69,8.91,41.88,11.5,43.6,8,87.7,8.54,131.82,6.42,27.76-1.34,55.44-4.06,82.34-11.58C797.17,355.32,805,351.72,813,348.72Z"/><path class="cls-2" d="M679.45,790.17C631.3,789,593.16,787.33,556,777.23c-2.92-.8-5.82-1.71-8.67-2.75-13.95-5.09-16.75-9.14-16.75-24a17.48,17.48,0,0,1,0-2.61c1.62-10.18-1-17.33-11.41-22.12-9-4.15-12.89-12.68-12.69-23.15.38-20.2.11-40.42.12-60.62,0-1.74,0-3.48.16-5.21.53-5.59,3.68-8.76,9.24-9,5.14-.25,9.19,3.88,9.24,9.64.14,18.69.08,37.37.07,56.06,0,15.77.47,16.6,15.41,22.86,22.83,9.57,46.89,14.75,71.33,16.6,28.08,2.13,56.36,3.22,84.51,2.62,32.6-.7,64.84-5.57,95.78-16.66,21.56-7.73,21.53-7.92,21.55-30.34,0-16.52-.12-33,0-49.54.09-9,7.65-14.33,14-9.77a12.29,12.29,0,0,1,4.67,8.49c.36,23.24.46,46.5,0,69.74-.18,10.64-7.95,16.74-16.43,21-5.83,2.91-7.93,6.43-7.15,12.61.47,3.64-.21,7.41.14,11.07,1,10.79-4.07,18.06-13.85,20.81-16.43,4.62-33,9.45-49.87,11.65C720.36,787.87,694.93,788.94,679.45,790.17ZM550.2,740.52c-3.07,12.69-2,14.67,9.35,18.18.83.25,1.67.47,2.51.69,33,8.62,66.71,11.06,100.58,11.46,38.68.45,77.25-1.63,114.88-11.62,15.49-4.11,12.53-2.34,12.47-17.51,0-.36-.4-.72-.67-1.18Q669.8,770.56,550.2,740.52Z"/><path class="cls-2" d="M317.08,339.68c-11,4.9-21.62,9.73-32.34,14.34-2.31,1-5.63,2.43-7.3,1.51-3.07-1.68-6.34-4.55-7.54-7.68-1.63-4.22.88-8,5.13-10,9.26-4.27,18.57-8.4,27.86-12.61,1.95-.88,3.88-1.82,6.45-3-2.94-6.55-5.7-12.82-8.54-19-5.85-12.83-11.67-25.67-17.62-38.45-5.73-12.32-14.9-15.77-27.14-10.32-5.55,2.46-11.05,5-16.57,7.57-13.88,6.4-17.25,15.12-11,28.87q17.49,38.51,35.08,77a34.87,34.87,0,0,1,2.39,6c1.27,5.13-.58,9-5.48,11.06-4.75,2-8.45.18-11.31-3.71a19.16,19.16,0,0,1-1.76-3.47c-12.16-26.64-24.42-53.23-36.44-79.93-10-22.27-2.26-42.42,20.06-52.71,6.3-2.91,12.56-5.92,18.94-8.65,19.6-8.36,40.32-.93,49.39,18.34,12.93,27.47,25.35,55.18,37.89,82.83,2.88,6.35,1.34,11.66-3.64,14-5.31,2.52-10.36.18-13.6-6.28C319.13,343.62,318.24,341.93,317.08,339.68Z"/><path class="cls-2" d="M506.56,546.2c0-11.72,0-23.45,0-35.17,0-9.33,3-13.64,9.29-13.71s9.42,4.46,9.42,13.47c0,22.58.25,45.16-.17,67.73-.12,6.32,2.13,10.2,7.69,11.77,15.59,4.41,31.07,10.23,47,12.16,29.23,3.54,58.74,4.75,88.14,6.8,7,.49,11,3.46,11.07,9.17.1,6-4.09,9.91-11.33,9.68-18.86-.61-37.84-.46-56.54-2.65-23-2.7-45.8-6.93-68.47-11.6-8.5-1.76-16.63-6.12-24.44-10.23-8.09-4.25-11.9-11.55-11.73-21C506.71,570.51,506.55,558.35,506.56,546.2Z"/><path class="cls-2" d="M832.82,547.05c0,12.17-.19,24.34.08,36.5.17,7.91-2.64,14.78-9.27,18.21-10.48,5.43-21.62,9.71-32.77,13.68-5,1.79-9.49-.72-11.09-6.29-1.52-5.3,1-9.55,6.67-11.62,7.11-2.61,14.26-5.11,21.34-7.81,4.54-1.73,6.27-4.92,6.21-10.06q-.42-34.87,0-69.74c0-3.4,1.2-7.67,3.47-9.89,1.92-1.89,7-2.85,9.2-1.61,2.82,1.58,5.71,5.72,5.86,8.89C833.19,520.53,832.81,533.8,832.82,547.05Z"/><path class="cls-2" d="M438.09,387q18.18,1,36.34,2c7.82.43,11.9,4,11.62,10.12s-4.84,9.22-12.57,8.89q-29.22-1.28-58.44-2.44c-7-.28-10.85-3.47-10.94-9.29-.1-6.06,3.89-9.58,11.24-9.68,7.58-.11,15.16,0,22.74,0Z"/><path class="cls-2" d="M473.67,459.14c-5.8-.52-11.62-.9-17.41-1.57-6.15-.71-9.56-4.79-9.09-10.44.44-5.19,4.37-8.68,10.33-8.42s12.06.93,18,1.78c7.68,1.09,11,4.64,10.49,10.5S481.46,459.49,473.67,459.14Z"/><path class="cls-2" d="M717.78,498.42c-.51,0-3.57.76-5.11-.44-2.82-2.17-6.63-5.6-6.52-8.36.13-3.17,3.45-7.44,6.51-8.95,3.64-1.81,8.48-1.5,12.8-1.55,5.44-.05,9.13,2.61,9.76,8.35.6,5.44-2.68,9.51-8.41,10.44C724.47,498.28,722.05,498.2,717.78,498.42Z"/><path class="cls-2" d="M720,626.2a47.68,47.68,0,0,1-6.44-.05c-5-.69-7.67-4.15-7.75-8.87s2.53-8.27,7.46-9.17a80,80,0,0,1,11.57-1.18c6.17-.2,10.26,3.43,10.48,8.92s-3.29,9.41-9.5,10c-1.92.19-3.88,0-5.82,0Z"/></g></g></svg>